<svg xmlns="http://www.w3.org/2000/svg" xmlns:xlink="http://www.w3.org/1999/xlink" width="100%" height="100%" version="1.1" viewBox="0 0 32 32" xml:space="preserve" style="fill-rule:evenodd;clip-rule:evenodd;stroke-linejoin:round;stroke-miterlimit:1.5"><g id="Layer-1"><g><path d="M19,6L19,13L20.514,11.587L22,13L22,6L19,6Z" transform="matrix(0.454545,0,0,0.454545,4.63638,4.63636) matrix(2.93334,0,0,3.14286,-37.3334,-18.0571)" style="fill:none;stroke:#000;stroke-width:1.09px"/></g><g><path d="M27,5.9C27,5.403 26.507,5 25.9,5L6.1,5C5.493,5 5,5.403 5,5.9L5,26.1C5,26.597 5.493,27 6.1,27L25.9,27C26.507,27 27,26.597 27,26.1L27,5.9Z" transform="matrix(0.454545,0,0,0.454545,4.63638,4.63636) matrix(1.8,0,0,2.2,-3.80003,-10.2)" style="fill:none;stroke:#000;stroke-width:1.64px"/></g><g><path d="M9.486,5L9.49,27" transform="matrix(0.454545,0,0,0.454545,4.63638,4.63636) matrix(2.2,0,0,2.2,-10.2,-10.2)" style="fill:none;stroke:#000;stroke-width:1.5px"/></g></g></svg>