<svg xmlns="http://www.w3.org/2000/svg" xmlns:xlink="http://www.w3.org/1999/xlink" width="100%" height="100%" version="1.1" viewBox="0 0 32 32" xml:space="preserve" style="fill-rule:evenodd;clip-rule:evenodd;stroke-linejoin:round;stroke-miterlimit:1.5"><g id="Layer-1"><g><path d="M5,24C5.008,26.003 5.995,26.986 8,27L24,27C25.989,26.984 26.989,25.992 27,24L27,10C26.993,8.019 25.993,7.002 24,7L14,7L12,5L8,5C5.986,5 4.996,6.001 5,8L5,24Z" transform="matrix(0.454545,0,0,0.454545,4.63638,4.63636) matrix(2,0,0,2,-7,-7)" style="fill:none;stroke:#000;stroke-width:1.65px"/></g><g><path d="M3,10L29,10" transform="matrix(0.454545,0,0,0.454545,4.63638,4.63636) matrix(1.69231,0,0,2,-2.07692,-5)" style="fill:none;stroke:#000;stroke-width:1.78px"/></g></g></svg>